<svg width="20" height="20" viewBox="0 0 20 20" fill="none" xmlns="http://www.w3.org/2000/svg">
<path d="M13.18 11.309C12.462 11.309 11.88 12.116 11.88 13.108C11.88 14.102 12.462 14.909 13.18 14.909C13.898 14.909 14.48 14.102 14.48 13.108C14.479 12.116 13.898 11.309 13.18 11.309ZM17.706 6.626C17.855 6.261 17.861 4.187 17.071 2.2C17.071 2.2 15.26 2.399 12.52 4.28C11.945 4.12 10.972 4.042 10.001 4.042C9.02799 4.042 8.05599 4.12 7.48099 4.28C4.73999 2.399 2.92899 2.2 2.92899 2.2C2.13999 4.187 2.14799 6.261 2.29499 6.626C1.36699 7.634 0.799988 8.845 0.799988 10.497C0.799988 17.683 6.76299 17.798 8.26699 17.798L10.001 17.8L11.733 17.798C13.239 17.798 19.2 17.683 19.2 10.497C19.2 8.845 18.634 7.634 17.706 6.626V6.626ZM10.028 16.915H9.97199C6.20099 16.915 3.26299 16.466 3.26299 12.8C3.26299 11.921 3.57299 11.107 4.30999 10.431C5.53699 9.304 7.61499 9.9 9.97199 9.9H10.028C12.385 9.9 14.464 9.304 15.692 10.431C16.427 11.107 16.737 11.921 16.737 12.8C16.737 16.466 13.8 16.915 10.028 16.915ZM6.82099 11.309C6.10299 11.309 5.52099 12.116 5.52099 13.108C5.52099 14.102 6.10299 14.909 6.82099 14.909C7.53999 14.909 8.12199 14.102 8.12199 13.108C8.12199 12.116 7.53999 11.309 6.82099 11.309V11.309Z" fill="white"/>
</svg>
